<?xml version="1.0" encoding="UTF-8"?>
<svg viewBox="0 0 960 304" xmlns="http://www.w3.org/2000/svg" role="img" aria-labelledby="deploy-title deploy-desc">
      <title id="deploy-title">Deployment tiga layanan SIPATURE di host DGX B200</title>
      <desc id="deploy-desc">Browser pengguna memanggil layanan web Next.js melalui HTTPS, yang membaca data dari PostgreSQL dan memanggil layanan inference FastAPI untuk analisis ulasan live secara offline dalam host DGX B200.</desc>
      <defs>
<style>
@import url('https://fonts.googleapis.com/css2?family=Instrument+Serif:ital@0;1&amp;family=Geist:wght@400;500;600&amp;family=Geist+Mono:wght@400;500;600&amp;display=swap');

    *, *::before, *::after { box-sizing: border-box; margin: 0; padding: 0; }
    :root {
      --paper: #f5f5f5;
      --paper-2: #ececec;
      --ink: #2d3142;
      --muted: #4f5d75;
      --soft: #7a8399;
      --rule: rgba(45,49,66,0.12);
      --accent: #eb6c36;
      --accent-tint: rgba(235,108,54,0.08);
      --link: #2e5aa8;
      --sans: 'Geist', system-ui, sans-serif;
      --serif: 'Instrument Serif', serif;
      --mono: 'Geist Mono', ui-monospace, monospace;
    }
    body {
      font-family: var(--sans);
      background: var(--paper);
      color: var(--ink);
      min-height: 100vh;
      display: flex;
      align-items: center;
      justify-content: center;
      padding: 2rem 1.5rem;
    }
    .frame {
      max-width: 1000px;
      width: 100%;
    }
    .eyebrow {
      font-family: var(--mono);
      font-size: 0.66rem;
      font-weight: 500;
      letter-spacing: 0.18em;
      text-transform: uppercase;
      color: var(--muted);
      margin-bottom: 0.5rem;
    }
    h1 {
      font-family: var(--serif);
      font-size: clamp(1.4rem, 2vw + 0.75rem, 1.9rem);
      font-weight: 400;
      letter-spacing: -0.02em;
      line-height: 1.15;
      color: var(--ink);
      margin-bottom: 1.25rem;
    }
    svg {
      width: 100%;
      min-width: 820px;
      display: block;
    }
    .card-title {
      font-family: var(--sans);
      font-weight: 600;
      font-size: 14px;
      fill: var(--ink);
    }
    .card-sub {
      font-family: var(--mono);
      font-size: 9px;
      fill: var(--muted);
      text-anchor: middle;
    }
    .tag-text {
      font-family: var(--mono);
      font-size: 7px;
      letter-spacing: 0.08em;
      text-anchor: middle;
      text-transform: uppercase;
    }
    .zone-title {
      font-family: var(--mono);
      font-size: 7.5px;
      font-weight: 600;
      letter-spacing: 0.14em;
      text-transform: uppercase;
    }
  
</style>

        <marker id="arrow" markerWidth="8" markerHeight="6" refX="7" refY="3" orient="auto"><polygon points="0 0, 8 3, 0 6" fill="#4f5d75"/></marker>
        <marker id="arrow-accent" markerWidth="8" markerHeight="6" refX="7" refY="3" orient="auto"><polygon points="0 0, 8 3, 0 6" fill="#eb6c36"/></marker>
        <marker id="arrow-link" markerWidth="8" markerHeight="6" refX="7" refY="3" orient="auto"><polygon points="0 0, 8 3, 0 6" fill="#2e5aa8"/></marker>
      </defs>

      <rect width="100%" height="100%" fill="#f5f5f5"/>

      <!-- ================= ZONES ================= -->
      <!-- Zone 1: Client Access -->
      <rect x="24" y="40" width="184" height="196" rx="8" fill="rgba(45,49,66,0.02)" stroke="rgba(45,49,66,0.12)" stroke-width="0.8"/>
      <rect x="36" y="46" width="104" height="14" rx="2" fill="#f5f5f5"/>
      <text x="42" y="57" class="zone-title" fill="#4f5d75">CLIENT ACCESS</text>

      <!-- Zone 2: DGX B200 Isolated Host -->
      <rect x="232" y="40" width="704" height="196" rx="8" fill="rgba(45,49,66,0.02)" stroke="rgba(45,49,66,0.16)" stroke-width="0.8"/>
      <rect x="244" y="46" width="104" height="14" rx="2" fill="#f5f5f5"/>
      <text x="250" y="57" class="zone-title" fill="#eb6c36">HOST DGX B200</text>

      <!-- ================= CONNECTORS (DRAWN FIRST) ================= -->
      <!-- Client -> Web (HTTPS) -->
      <line x1="200" y1="138" x2="248" y2="138" stroke="#2e5aa8" stroke-width="1.4" marker-end="url(#arrow-link)"/>
      <rect x="206" y="118" width="36" height="12" rx="2" fill="#f5f5f5"/>
      <text x="224" y="127" fill="#2e5aa8" font-size="7.5" font-family="'Geist Mono', monospace" text-anchor="middle" font-weight="600">HTTPS</text>

      <!-- Web -> Inference (Live API) -->
      <line x1="456" y1="100" x2="504" y2="100" stroke="#eb6c36" stroke-width="1.4" marker-end="url(#arrow-accent)"/>
      <rect x="464" y="80" width="32" height="12" rx="2" fill="#f5f5f5"/>
      <text x="480" y="89" fill="#eb6c36" font-size="7.5" font-family="'Geist Mono', monospace" text-anchor="middle" font-weight="600">LIVE</text>

      <!-- Web -> DB (SQL Read) -->
      <line x1="456" y1="184" x2="504" y2="184" stroke="#4f5d75" stroke-width="1.2" marker-end="url(#arrow)"/>
      <rect x="464" y="164" width="32" height="12" rx="2" fill="#f5f5f5"/>
      <text x="480" y="173" fill="#4f5d75" font-size="7.5" font-family="'Geist Mono', monospace" text-anchor="middle" font-weight="600">READ</text>

      <!-- ================= NODE CARDS ================= -->
      <!-- NODE 1: Browser Client -->
      <g id="node-client">
        <rect x="36" y="64" width="160" height="152" rx="6" fill="#f5f5f5"/>
        <rect x="36" y="64" width="160" height="152" rx="6" fill="rgba(79,93,117,0.06)" stroke="#7a8399" stroke-width="1"/>
        <rect x="88" y="78" width="56" height="16" rx="2" fill="transparent" stroke="rgba(122,131,153,0.40)" stroke-width="0.8"/>
        <text x="116" y="90" class="tag-text" fill="#7a8399">CLIENT</text>

        <!-- Inline Icon + Title -->
        <g transform="translate(58, 116)" stroke="#4f5d75" fill="none" stroke-width="1.4" stroke-linecap="round" stroke-linejoin="round">
          <rect x="0" y="0" width="18" height="14" rx="2"/>
          <line x1="0" y1="4.5" x2="18" y2="4.5"/>
          <circle cx="3" cy="2.2" r="0.6" fill="#4f5d75"/>
          <circle cx="6" cy="2.2" r="0.6" fill="#4f5d75"/>
          <circle cx="9" cy="2.2" r="0.6" fill="#4f5d75"/>
        </g>
        <text x="82" y="129" class="card-title" text-anchor="start">Browser Web</text>
        <text x="116" y="152" class="card-sub">Dashboard Interaktif</text>
      </g>

      <!-- NODE 2: Web Service (Next.js - FOCAL) -->
      <g id="node-web">
        <rect x="248" y="64" width="208" height="152" rx="6" fill="#f5f5f5"/>
        <rect x="248" y="64" width="208" height="152" rx="6" fill="rgba(235,108,54,0.08)" stroke="#eb6c36" stroke-width="1.4"/>
        <rect x="314" y="78" width="76" height="16" rx="2" fill="rgba(235,108,54,0.16)" stroke="rgba(235,108,54,0.50)" stroke-width="0.8"/>
        <text x="352" y="90" class="tag-text" fill="#eb6c36" font-weight="600">WEB APP</text>

        <!-- Inline Icon + Title -->
        <g transform="translate(310, 115)">
          <svg width="17" height="17" viewBox="0 0 24 24" fill="#eb6c36">
            <path d="M18.665 21.978C16.666 23.27 14.28 24 11.724 24 5.249 24 0 18.751 0 12.276 0 5.801 5.249.552 11.724.552c6.475 0 11.724 5.249 11.724 11.724 0 2.766-.96 5.308-2.57 7.306l-9.155-12.01h-2.1v9.655h1.724v-7.17l8.283 10.921zM14.966 8.828h1.724v6.896h-1.724V8.828z"/>
          </svg>